<?xml version="1.0" encoding="UTF-8"?><svg id="eight_back" xmlns="http://www.w3.org/2000/svg" viewBox="0 0 328.78 477.71"><defs><style>.cls-1,.cls-2{fill:#fff;}.cls-3{fill:none;stroke-dasharray:0 0 12.55 12.55;}.cls-3,.cls-2{stroke:#231f20;stroke-miterlimit:10;}.cls-2{stroke-linecap:round;stroke-width:6px;}.cls-4{fill:#231f20;}</style></defs><ellipse class="cls-4" cx="212.36" cy="22.44" rx="26.58" ry="9.02"/><path class="cls-2" d="M284.42,41.71s-24.86-19.46-67.41-20.21h.12c-42.55,.75-67.41,20.21-67.41,20.21"/><path class="cls-2" d="M284.42,41.71s-24.86,19.46-67.41,20.21h.12c-42.55-.75-67.41-20.21-67.41-20.21"/><path class="cls-4" d="M294.25,31.37s-22.78-21.32-68.51-22.14c0,0-32.05-3.57-84.72,22.38l-10.54-10.1s96.32-54.42,163.77,9.86Z"/><ellipse class="cls-1" cx="225.79" cy="35.6" rx="4.18" ry="2.91"/><path class="cls-3" d="M238.94,27.79c0,6.62-11.9,11.99-26.58,11.99-35.27-.66-35.27-23.32,0-23.98,14.68,0,26.58,5.37,26.58,11.99h0Z"/></svg>