<?xml version="1.0" encoding="UTF-8"?><svg id="Layer_1" xmlns="http://www.w3.org/2000/svg" viewBox="0 0 398.56 317.15"><defs><style>.cls-1{fill:#fff;}.cls-2{fill:#0071bc;stroke-width:4px;}.cls-2,.cls-3{stroke:#2e3192;}.cls-2,.cls-3,.cls-4{stroke-miterlimit:10;}.cls-3{stroke-width:3px;}.cls-3,.cls-5{fill:#65c8d0;}.cls-6{fill:#e6e6e6;}.cls-7{fill:#5d5d5d;}.cls-8{fill:#edebec;}.cls-9{fill:#eeeced;}.cls-10{fill:#d9d9d9;}.cls-11,.cls-4{fill:#f2f2f2;}.cls-4{stroke:#e3e3e3;stroke-linecap:round;stroke-width:5px;}.cls-12{fill:#e3e3e3;}</style></defs><path class="cls-6" d="M206.69,229.33c0,4.39-3.57,7.95-7.96,7.94h-11.72l.02-15.91"/><path class="cls-6" d="M190.03,221.8l-.02,15.08c0,1.04-.85,1.89-1.89,1.89h0c-1.04,0-1.89-.85-1.89-1.89l.02-15.08"/><line class="cls-6" x1="192.28" y1="221.36" x2="192.26" y2="237.26"/><g id="Layer_1-2"><path class="cls-10" d="M245.52,90.1l-2.64,4.61h1.22c1.65,0,2.99,1.35,2.99,3,0,1.65-1.35,2.99-3,2.99h-4.64l-12.52,21.89"/><path class="cls-2" d="M370.74,219.88h20.03l-25.41-59.93,25.55-61.3-18.01-.02-34.14,37.76c-3.53,3.9-9.18,4.87-13.93,2.62l-.08-.04c-8.66-4.09-18.21-5.95-27.79-5.95l-236.38-.26v.13s-20.56-2.84-55.08,18.7h-.06v.03c-.19,.12-.37,.21-.56,.34-.04,.03-.09,.05-.12,.08-.02,.02-.07,.04-.07,.04v.02c-3.57,2.79-3.63,8.4,0,11.26v.05c.25,.16,.48,.29,.72,.45v.03h.07l.32,.2c.14,.08,.24,.19,.4,.26l.09,.04c19.31,11.97,34.17,16.27,43.41,17.73h.06c6.98,1.1,10.76,.6,10.76,.6l237.71,.27c9.15,.01,18.19-2,26.47-5.9l.07-.03c3.93-1.85,8.62-.91,11.53,2.33l36.46,40.5"/><path class="cls-9" d="M395.42,98.66l-23.31-.03c-1.51,0-2.73,1.22-2.74,2.73h0c0,1.51,1.23,2.74,2.73,2.74l23.31,.03c1.51,0,2.73-1.22,2.74-2.73h0c0-1.51-1.22-2.73-2.73-2.74Z"/><path class="cls-5" d="M381.28,211.62l-23.25-43.6c-.68-1.28,.28-2.82,1.73-2.76l8.01,.32,20.7,48.82"/><path class="cls-12" d="M388.59,104.12h-1.71c-2.46,0-4.73,1.35-5.89,3.52l-23.08,43.04c-.63,1.18,.25,2.59,1.58,2.56l8.79-.27,20.31-48.86h0Z"/><path class="cls-5" d="M382.53,209.5l-19.73-40.7c-.79-1.57,.38-3.41,2.14-3.34l2.83,.11,19.9,46.93"/><path class="cls-5" d="M368.69,152l19.58-40.81h0c-2.17-.08-4.18,.97-5.1,2.66l-19.27,35.31c-.78,1.36,.42,2.93,2.18,2.85h2.62Z"/><path class="cls-5" d="M367.01,153.24l-14.57-.02c-3.37,0-6.11,2.73-6.12,6.11h0c0,3.37,2.73,6.11,6.1,6.12l14.57,.02c3.37,0,6.11-2.73,6.12-6.1h0c0-3.37-2.73-6.11-6.1-6.12h0Z"/><path class="cls-11" d="M395.26,100l-23.13-.03c-.77,0-1.39,.62-1.39,1.39h0c0,.77,.62,1.39,1.39,1.39l23.13,.03c.77,0,1.39-.62,1.39-1.39h0c0-.77-.62-1.39-1.39-1.39Z"/><path class="cls-9" d="M373.75,214.39l-25.13-42c-1.02-1.71-3.21-2.3-4.95-1.33l-2.43,1.34c-2.03,1.12-2.54,3.82-1.05,5.6l29.32,35.07"/><path class="cls-9" d="M245.23,208.95c0-1.65-1.34-2.99-2.99-3h-12c-1.65-.02-2.99,1.33-3,2.98"/><path class="cls-9" d="M199.31,220.86l-19.05-20.17c-1.03-1.1-2.75-1.15-3.85-.11h0c-1.1,1.03-1.15,2.75-.11,3.85l19.05,20.17"/><path class="cls-6" d="M204.75,89.14c0,4.39-3.57,7.95-7.96,7.94h-11.72l.02-15.91"/><path class="cls-6" d="M188.09,81.61l-.02,15.08c0,1.04-.85,1.89-1.89,1.89h0c-1.04,0-1.89-.85-1.89-1.89l.02-15.08"/><polyline class="cls-6" points="190.34 81.17 190.33 97.07 188.07 97.07 188.09 81.17"/><path class="cls-8" d="M185.93,97.07h0c-.62,0-1.11-.5-1.11-1.11v-3.05c0-.62,.51-1.11,1.12-1.11h0c.62,0,1.11,.5,1.11,1.11v3.05c0,.62-.51,1.11-1.12,1.11Z"/><g><path class="cls-9" d="M244.08,207.17h-12c-1.65,.02-2.99,1.36-2.99,3.01h0c0,1.65,1.35,2.99,3,2.99h12c1.65-.02,2.99-1.36,2.99-3.01h0c0-1.65-1.35-2.99-3-2.99h0Z"/><path class="cls-6" d="M249.68,100.46h-12c-1.65-.02-2.99-1.36-2.99-3.01h0c0-1.65,1.35-2.99,3-2.99h12c1.65,.02,2.99,1.36,2.99,3.01h0c0,1.65-1.35,2.99-3,2.99Z"/><path class="cls-9" d="M244.08,111.06h-12c-1.65-.02-2.99-1.36-2.99-3.01h0c0-1.65,1.35-2.99,3-2.99h12c1.65,.02,2.99,1.36,2.99,3.01h0c0,1.65-1.35,2.99-3,2.99h0Z"/><path class="cls-6" d="M185.07,223.07l.02,13.99"/><path class="cls-6" d="M184.29,222.69l.02,13.92"/><path class="cls-6" d="M188.09,236.61l-.02-13.92"/><line class="cls-6" x1="188.07" y1="223.07" x2="188.09" y2="237.06"/><path class="cls-6" d="M252.68,223.47c0,1.65-1.35-5.71-3-5.71l-12,8.69"/></g><polygon class="cls-3" points="301.94 1.83 224.51 137.17 147.22 134.01 275.29 4.89 301.94 1.83"/><polyline class="cls-12" points="290.68 11.3 196.46 134.06 224.39 134.09 298.81 7.3"/><path class="cls-9" d="M176.51,116.29h0c-1.09-1.04-1.14-2.76-.11-3.85l19.1-20.13c1.04-1.09,2.76-1.14,3.85-.11h0c1.09,1.04,1.14,2.76,.11,3.85l-19.1,20.13c-1.04,1.09-2.76,1.14-3.85,.11Z"/><path class="cls-7" d="M35.12,174.69l-1.17-.58c-6.11-3-9.99-9.23-9.98-16.04h0c.01-7.03,4.14-13.4,10.56-16.28l.64-.28-.4,.5c-3.36,4.25-5.2,9.51-5.21,14.93v2.24c-.01,5.17,1.65,10.21,4.73,14.37l.84,1.13Z"/><path class="cls-1" d="M35.15,140.84c.2,0,.4,.1,.54,.27,.19,.25,.19,.6,0,.85l-.4,.5c-3.26,4.11-5.05,9.26-5.06,14.51v2.24c0,4.99,1.62,9.95,4.59,13.95l.84,1.13c.19,.25,.18,.6-.02,.84s-.54,.31-.82,.18l-1.17-.58c-6.31-3.09-10.37-9.37-10.36-16.65,.01-7.29,4.31-13.92,10.96-16.9l.64-.28c.09-.04,.19-.06,.28-.06h0Zm-6.28,18.36v-2.24c.01-4.8,1.43-9.53,4.04-13.53-5.07,3.08-8.26,8.63-8.26,14.65,0,5.98,3.18,11.58,8.24,14.68-2.6-4.01-4.02-8.77-4.02-13.56Z"/><path class="cls-1" d="M29.55,161.47h-5.12c-.38,0-.68,.3-.69,.68s.3,.68,.68,.69h5.12c.38,0,.68-.3,.69-.68s-.3-.68-.68-.69Z"/><path class="cls-1" d="M29.93,152.09h-5.14c-.38,0-.68,.3-.69,.68s.3,.68,.68,.69h5.14c.38,0,.68-.3,.69-.68s-.3-.68-.68-.69Z"/><g><rect class="cls-1" x="61.26" y="176.95" width="2.87" height="5.36" rx=".39" ry=".39" transform="translate(-116.99 242.13) rotate(-89.94)"/><rect class="cls-1" x="68.38" y="176.95" width="2.87" height="5.36" rx=".39" ry=".39" transform="translate(-109.89 249.26) rotate(-89.94)"/><rect class="cls-1" x="75.45" y="176.96" width="2.87" height="5.36" rx=".39" ry=".39" transform="translate(-102.84 256.34) rotate(-89.94)"/><rect class="cls-1" x="82.58" y="176.97" width="2.87" height="5.36" rx=".39" ry=".39" transform="translate(-95.73 263.47) rotate(-89.94)"/><rect class="cls-1" x="89.75" y="176.98" width="2.87" height="5.36" rx=".39" ry=".39" transform="translate(-88.57 270.65) rotate(-89.94)"/><rect class="cls-1" x="96.87" y="176.99" width="2.87" height="5.36" rx=".39" ry=".39" transform="translate(-81.46 277.78) rotate(-89.94)"/><rect class="cls-1" x="103.95" y="177" width="2.87" height="5.36" rx=".39" ry=".39" transform="translate(-74.4 284.87) rotate(-89.94)"/><rect class="cls-1" x="111.07" y="177" width="2.87" height="5.36" rx=".39" ry=".39" transform="translate(-67.29 291.99) rotate(-89.94)"/><rect class="cls-1" x="118.13" y="177" width="2.87" height="5.36" rx=".39" ry=".39" transform="translate(-60.24 299.05) rotate(-89.94)"/><rect class="cls-1" x="125.26" y="177.02" width="2.87" height="5.36" rx=".39" ry=".39" transform="translate(-53.14 306.19) rotate(-89.94)"/><rect class="cls-1" x="132.33" y="177.02" width="2.87" height="5.36" rx=".39" ry=".39" transform="translate(-46.08 313.27) rotate(-89.94)"/><rect class="cls-1" x="139.45" y="177.03" width="2.87" height="5.36" rx=".39" ry=".39" transform="translate(-38.97 320.4) rotate(-89.94)"/></g><g><rect class="cls-1" x="61.3" y="134.32" width="2.87" height="5.36" rx=".39" ry=".39" transform="translate(-74.32 199.59) rotate(-89.94)"/><rect class="cls-1" x="68.43" y="134.32" width="2.87" height="5.36" rx=".39" ry=".39" transform="translate(-67.21 206.72) rotate(-89.94)"/><rect class="cls-1" x="75.5" y="134.34" width="2.87" height="5.36" rx=".39" ry=".39" transform="translate(-60.16 213.8) rotate(-89.94)"/><rect class="cls-1" x="82.62" y="134.34" width="2.87" height="5.36" rx=".39" ry=".39" transform="translate(-53.05 220.92) rotate(-89.94)"/><rect class="cls-1" x="89.8" y="134.35" width="2.87" height="5.36" rx=".39" ry=".39" transform="translate(-45.89 228.11) rotate(-89.94)"/><rect class="cls-1" x="96.91" y="134.35" width="2.87" height="5.36" rx=".39" ry=".39" transform="translate(-38.79 235.23) rotate(-89.94)"/><rect class="cls-1" x="103.98" y="134.35" width="2.87" height="5.36" rx=".39" ry=".39" transform="translate(-31.72 242.3) rotate(-89.94)"/><rect class="cls-1" x="111.11" y="134.37" width="2.87" height="5.36" rx=".39" ry=".39" transform="translate(-24.62 249.44) rotate(-89.94)"/><rect class="cls-1" x="118.18" y="134.37" width="2.87" height="5.36" rx=".39" ry=".39" transform="translate(-17.56 256.52) rotate(-89.94)"/><rect class="cls-1" x="125.3" y="134.38" width="2.87" height="5.36" rx=".39" ry=".39" transform="translate(-10.45 263.65) rotate(-89.94)"/><rect class="cls-1" x="132.38" y="134.39" width="2.87" height="5.36" rx=".39" ry=".39" transform="translate(-3.4 270.73) rotate(-89.94)"/><rect class="cls-1" x="139.5" y="134.4" width="2.87" height="5.36" rx=".39" ry=".39" transform="translate(3.71 277.87) rotate(-89.94)"/></g><rect class="cls-1" x="163.67" y="37.38" width="26.92" height="243.03" rx="5.28" ry="5.28" transform="translate(18.05 335.86) rotate(-89.94)"/><path class="cls-12" d="M366.06,156.24l-14.57-.02c-3.37,0-6.11,1.27-6.11,2.86h0c0,1.58,2.73,2.87,6.11,2.87l14.57,.02c3.37,0,6.11-1.27,6.11-2.86h0c0-1.58-2.73-2.87-6.11-2.87Z"/><polygon class="cls-3" points="274.95 312.2 147.17 182.8 224.46 179.8 301.6 315.31 274.95 312.2"/><polyline class="cls-12" points="290.36 305.82 196.4 182.85 224.39 182.88 298.49 309.84"/></g><path class="cls-11" d="M392.5,217.77l-23.13-.03"/><path class="cls-4" d="M396.06,217.76l-23.31-.03"/></svg>