<?xml version="1.0" encoding="UTF-8"?><svg id="Layer_1" xmlns="http://www.w3.org/2000/svg" viewBox="0 0 173.49 164.54"><defs><style>.cls-1{fill:#ce3527;}.cls-2{fill:#431a0d;}.cls-3{fill:#5d9a99;}.cls-4{fill:#fff;}.cls-5{fill:#b1c1c9;}.cls-6{fill:none;stroke:#fff;stroke-miterlimit:10;}</style></defs><path class="cls-1" d="M161.11,84.77c6.63-.53,11.79-3.2,12.33-6.25s-3.67-5.82-10.09-6.48l2.5-14.16c.81-4.57-2.72-8.31-7.88-8.36s-10.73,3.57-12.17,8.13c-1.38,4.38-2.57,8.79-3.58,13.21l-51.45-2.82c2.75-19.01,3.76-38.05,3-57.2C93.44,4.91,87.04,.07,79.75,0c-7.29-.07-14.05,4.7-15.1,10.65l-9.77,55.45c-18.49-.74-36.73,1.81-44.68,6.3l1.96-11.15c.2-1.13-1.12-2.07-2.95-2.08s-3.48,.89-3.68,2.02L.02,92.48c-.2,1.13,1.12,2.07,2.95,2.08s3.48-.89,3.68-2.02l1.96-11.15c6.35,4.63,23.62,7.54,42.31,7.16"/><line class="cls-3" x1="87.55" y1="85.42" x2="139.87" y2="82.8"/><path class="cls-2" d="M18.17,82.69l142.41-1.05s-123.58,16.04-142.41,1.05Z"/><path class="cls-4" d="M32.33,70.56c.4-1.79-3.73-2.64-9.18-1.89l-.4,.06c-5.45,.75-10.33,2.35-10.85,3.55s-1.02,2.19-1.12,2.19-.17,.15-.15,.34,.01,.4-.02,.47-.02,.13,.01,.13,.16,.88,.28,1.96,4.44,2.51,9.61,3.19,9.75-.37,10.18-2.32,.8-3.74,.84-3.98,.39-1.9,.8-3.69Z"/><path class="cls-2" d="M59.48,63.26l8.59-53.9s2.86-8.44,12.64-6.27c0,0-5.92-1.28-7.58,9.83-1.66,11.11-5,44.75-8.31,48.76l-3.32,4-2.03-2.42Z"/><polygon class="cls-5" points="12.47 79.05 30.75 75.34 28.44 80.8 22.56 80.81 12.47 79.05"/><ellipse class="cls-4" cx="154.95" cy="70.64" rx="15.49" ry="1.89" transform="translate(-1.01 2.25) rotate(-.83)"/><path class="cls-2" d="M157.79,72.86c8.55-.12,15.04-.42,14.88,.62,1.11-7.3-1.92,1.91-15.78,2.08-8.55,.1-15.74-.8-15.2-1.7,.63-1.05,10.87-.92,16.1-.99Z"/><path class="cls-1" d="M51.48,89.62l-10.42,62.73c-1.12,6.74,3.89,12.2,11.18,12.19,7.3,0,15.43-5.4,17.93-12.09,7.72-21.62,13.64-43.14,17.81-64.64"/><path class="cls-1" d="M139.87,82.8c-.61,5-1.04,10-1.21,14.96-.22,5.16,4.02,9.31,9.18,9.31,5.16,0,10.04-4.19,10.9-9.36l2.66-16.02"/><path class="cls-2" d="M55.14,95.1l-11.01,58.13s-.17,9.04,10.62,6.29c0,0-6.52,1.63-4.13-10.36,2.39-11.99,11.33-48.35,9.41-52.56l-1.92-4.21-2.96,2.71Z"/><g><path class="cls-6" d="M37.63,79.02c-.5-2.85,.17-9.2,1.7-11.93"/><path class="cls-6" d="M40.36,78.95c-.5-2.85,.17-9.2,1.7-11.93"/><path class="cls-6" d="M43.1,78.88c-.5-2.85,.17-9.2,1.7-11.93"/><path class="cls-6" d="M45.83,78.81c-.5-2.85,.17-9.2,1.7-11.93"/><path class="cls-6" d="M48.57,78.74c-.5-2.85,.17-9.2,1.7-11.93"/><path class="cls-6" d="M51.31,78.67c-.5-2.85,.17-9.2,1.7-11.93"/><path class="cls-6" d="M54.04,78.6c-.5-2.85,.17-9.2,1.7-11.93"/><path class="cls-6" d="M56.78,78.53c-.5-2.85,.17-9.2,1.7-11.93"/><path class="cls-6" d="M59.51,78.46c-.5-2.85,.17-9.2,1.7-11.93"/><path class="cls-6" d="M62.25,78.39c-.5-2.85,.17-9.2,1.7-11.93"/></g></svg>