<?xml version="1.0" encoding="UTF-8"?><svg id="Layer_2" xmlns="http://www.w3.org/2000/svg" viewBox="0 0 323.42 356.61"><defs><style>.cls-1{fill:#431a0d;}.cls-2{fill:#fff;}.cls-3{fill:#b1c1c9;}.cls-4{fill:none;stroke:#fff;}.cls-4,.cls-5{stroke-miterlimit:10;}.cls-5{fill:#ce3527;stroke:#730e29;stroke-width:4px;}</style></defs><path class="cls-5" d="M96.18,26.49l-.27,126.2c-34.77-1.35-68.01,4.8-81.42,15.15l.05-25.37c0-2.58-2.77-4.68-6.19-4.68s-6.21,2.08-6.21,4.66l-.15,71.22c0,2.58,2.77,4.68,6.19,4.68,3.42,0,6.21-2.08,6.21-4.66l.05-25.37c13.36,10.41,46.57,16.7,81.35,15.5l-.27,126.2c-.03,13.55,11.01,24.57,24.65,24.6,13.64,.03,27.2-10.79,29.82-24.24,7.81-43.48,12.29-86.76,13.5-130.01l97.01-5.04c.39,10.07,1.12,20.11,2.31,30.1,1.17,10.38,10.37,18.76,20.01,18.78,9.64,.02,17.48-8.39,17.5-18.79l.07-32.24c12.21-1.33,20.99-7.5,21-14.44s-8.74-13.15-20.94-14.53l.07-32.24c.02-10.4-7.78-18.84-17.42-18.86-9.64-.02-18.88,8.32-20.09,18.69-1.17,9.98-1.94,20.03-2.4,30.09l-97.03-5.45c-1.03-43.26-5.32-86.55-12.95-130.07-2.56-13.46-16.08-24.34-29.72-24.37-13.64-.03-24.72,10.94-24.75,24.49Z"/><ellipse class="cls-2" cx="280.16" cy="176.76" rx="33.66" ry="4.1" transform="translate(-2.53 4.08) rotate(-.83)"/><path class="cls-1" d="M286.31,179.65c18.57,.82,32.67,.99,32.19,3.24,3.34-15.69-4.42,3.9-34.48,2.5-18.57-.86-34.05-3.73-32.75-5.62,1.5-2.19,23.7-.62,35.04-.12Z"/><path class="cls-1" d="M286.3,174.62c18.55-1.17,32.65-1.61,32.13-3.84,3.63,15.62-4.49-3.81-34.52-1.85-18.55,1.21-33.97,4.37-32.64,6.24,1.54,2.16,23.7,.17,35.03-.54Z"/><path class="cls-1" d="M101.69,220.51l-.67,115.05s2.86,16.98,22.61,5.51c0,0-11.96,6.88-11.59-16.92,.37-23.8,4.73-96.98-.44-103.71l-5.17-6.73-4.73,6.8Z"/><path class="cls-1" d="M101.69,136.91l-.67-115.05s2.86-16.98,22.61-5.51c0,0-11.96-6.88-11.59,16.92,.37,23.8,4.73,96.98-.44,103.71l-5.17,6.73-4.73-6.8Z"/><g><path class="cls-4" d="M81.26,193.75c-2.83-8.03-3.66-25.76-.23-33.26"/><path class="cls-4" d="M89.56,193.79c-2.83-8.03-3.66-25.76-.23-33.26"/><path class="cls-4" d="M97.87,193.84c-2.83-8.03-3.66-25.76-.23-33.26"/><path class="cls-4" d="M106.18,193.89c-2.83-8.03-3.66-25.76-.23-33.26"/><path class="cls-4" d="M114.48,193.93c-2.83-8.03-3.66-25.76-.23-33.26"/><path class="cls-4" d="M122.79,193.98c-2.83-8.03-3.66-25.76-.23-33.26"/><path class="cls-4" d="M131.09,194.02c-2.83-8.03-3.66-25.76-.23-33.26"/><path class="cls-4" d="M139.4,194.07c-2.83-8.03-3.66-25.76-.23-33.26"/><path class="cls-4" d="M147.71,194.11c-2.83-8.03-3.66-25.76-.23-33.26"/><path class="cls-4" d="M156.01,194.16c-2.83-8.03-3.66-25.76-.23-33.26"/></g><path class="cls-2" d="M55.17,161.93c-18.44,.76-30.09,8.95-33.12,11.34h-.79s-1.08,1.06-1.67,2.53c-.29,.58-.39,1.16-.37,1.73-.01,.57,.09,1.15,.37,1.73,.6,1.47,1.67,2.53,1.67,2.53h.79c3.03,2.39,14.67,10.59,33.12,11.34h17.8v-31.21h-17.8Z"/><path class="cls-3" d="M21.26,181.13s12.29,11.11,33.91,12h17.8v-9.93H21.26s-4.64-5.39,0-2.07Z"/><path class="cls-3" d="M21.26,173.93s12.29-11.11,33.91-12h17.8v9.93H21.26s-4.64,5.39,0,2.07Z"/></svg>